
<svg width="95" height="84" viewBox="0 0 95 84" fill="none" xmlns="http://www.w3.org/2000/svg">
<path d="M94.9638 17.096L82.654 28.3354L50.0825 12.1262L62.3923 0.886719L94.9638 16.6353V17.096Z" fill="#B68C66"/>
<path d="M94.9638 16.6009L82.654 27.8403L50.0825 11.631L62.3923 0.391602L94.9638 16.6009Z" fill="#E9BB86"/>
<path d="M50.0942 11.5608L82.6648 27.8452V67.6171L50.0942 51.3327V11.5608Z" fill="#DAAF7D"/>
<path opacity="0.2" d="M82.6646 28.422L50.094 12.1376V11.5608L82.6646 27.8452V28.422Z" fill="#6E593F"/>
<path d="M17.5234 67.6017L50.094 51.3173V11.5608L17.5234 27.8452V67.6017Z" fill="#B68C66"/>
<path opacity="0.2" d="M17.5234 28.422L50.094 12.1376V11.5608L17.5234 27.8452V28.422Z" fill="#6E593F"/>
<path d="M17.5229 27.8494L50.0935 44.1338V83.9057L17.5229 67.6213V27.8494Z" fill="#E9BB86"/>
<path d="M50.083 44.7262L17.5124 28.4418V27.865L50.083 44.1494V44.7262Z" fill="#6E593F"/>
<path opacity="0.5" d="M22.1822 64.4274V35.7016L45.4354 47.3276V76.0534L22.1822 64.4274Z" stroke="black" stroke-width="3.21395"/>
<path d="M50.0825 83.9058L82.6531 67.6214V27.8648L50.0825 44.1492V83.9058Z" fill="#B68C66"/>
<path d="M78.0891 50.2224V41.6932C78.0891 41.2388 78.4194 40.7076 78.8269 40.5067C79.3963 40.2259 79.7511 39.3624 79.4644 38.9553L78.2305 37.2033C77.6397 36.3644 76.1753 37.0866 75.5845 38.5081L74.3506 41.4772C74.064 42.167 74.4188 42.6805 74.9881 42.3998C75.3956 42.1988 75.7259 42.4042 75.7259 42.8586V51.3878C75.7259 52.1154 76.2549 52.4444 76.9075 52.1226C77.5601 51.8008 78.0891 50.95 78.0891 50.2224Z" fill="#74513A"/>
<g opacity="0.8">
<rect width="2.65897" height="12.5289" rx="1.32949" transform="matrix(0.891007 -0.453991 0 1 52.9575 66.9771)" fill="#63422F"/>
<rect width="1.27625" height="12.5289" rx="0.638126" transform="matrix(0.891007 -0.453991 0 1 55.8901 65.4814)" fill="#63422F"/>
<rect width="1.27625" height="12.5289" rx="0.638126" transform="matrix(0.891007 -0.453991 0 1 65.4497 60.6113)" fill="#63422F"/>
<rect width="1.27625" height="12.5289" rx="0.638126" transform="matrix(0.891007 -0.453991 0 1 57.2827 64.7726)" fill="#63422F"/>
<rect width="1.27625" height="12.5289" rx="0.638126" transform="matrix(0.891007 -0.453991 0 1 62.6167 62.0546)" fill="#63422F"/>
<rect width="2.04541" height="12.5289" rx="1.02271" transform="matrix(0.891007 -0.453991 0 1 60.5396 63.113)" fill="#63422F"/>
</g>
<path opacity="0.2" d="M50.0825 44.7262L82.6531 28.4418V27.865L50.0825 44.1494V44.7262Z" fill="#6E593F"/>
<g opacity="0.5">
<path d="M23.5879 53.5609V49.944L24.2605 50.2757V53.0955L25.0692 53.4943V54.2914L23.5879 53.5609Z" fill="black"/>
<path fill-rule="evenodd" clip-rule="evenodd" d="M27.6065 52.3813C27.8825 52.8807 28.0147 53.4556 28.0147 53.9382C28.0147 54.4154 27.8825 54.8546 27.6065 55.0872C27.3421 55.3093 26.9689 55.3096 26.584 55.1198C26.1991 54.93 25.8258 54.5615 25.5614 54.0787C25.2854 53.5738 25.1532 53.0043 25.1532 52.5271C25.1532 52.0445 25.2854 51.6 25.5614 51.3728C25.8258 51.1507 26.1991 51.1504 26.584 51.3402C26.9689 51.53 27.3421 51.8984 27.6065 52.3813ZM27.1049 52.7955C26.9611 52.5348 26.7628 52.3394 26.584 52.2512C26.3973 52.1591 26.1991 52.1535 26.0591 52.2797C25.9191 52.4005 25.853 52.6336 25.853 52.8885C25.853 53.2084 25.9619 53.4844 26.0591 53.6625C26.1835 53.892 26.3585 54.0976 26.584 54.2088C26.8133 54.3219 26.9844 54.2924 27.1049 54.1837C27.2255 54.075 27.3149 53.8697 27.3149 53.5931C27.3149 53.3112 27.2255 53.0176 27.1049 52.7955Z" fill="black"/>
<path d="M29.1617 56.3096L28.0731 52.1559L28.8079 52.5182L29.43 55.0266L30.0598 53.1356L30.7907 53.496L29.6866 56.5685L29.1617 56.3096Z" fill="black"/>
<path d="M31.0637 53.6307L32.5372 54.3573V55.1545L31.7363 54.7595V55.3614L32.4945 55.7353V56.5324L31.7363 56.1585V56.7822L32.5372 57.1771V57.9742L31.0637 57.2476V53.6307Z" fill="black"/>
<path d="M33.2419 58.2838C33.1992 58.241 33.0359 58.0737 32.8493 57.8028L33.137 57.1855C33.2808 57.4462 33.4985 57.7325 33.7318 57.8476C33.8679 57.9147 33.9495 57.8953 33.9923 57.8513C34.0312 57.8162 34.0584 57.7483 34.0584 57.6561C34.0584 57.5856 34.0389 57.4947 33.9845 57.4028C33.9235 57.2976 33.8326 57.2147 33.6874 57.0821C33.6754 57.0712 33.663 57.0598 33.6502 57.0481L33.4752 56.8859C33.3663 56.7834 33.2069 56.6235 33.102 56.409C32.9698 56.1432 32.9542 55.8807 32.9542 55.6963C32.9542 55.2517 33.0786 55.0419 33.1914 54.9402C33.3236 54.821 33.5413 54.7711 33.8562 54.9264C34.1128 55.053 34.4122 55.3145 34.6571 55.6142L34.3889 56.214C34.1867 55.892 34.0351 55.7955 33.9456 55.7514C33.8795 55.7188 33.7901 55.6964 33.724 55.7506C33.6851 55.7856 33.6579 55.8319 33.6579 55.9132C33.6579 55.9783 33.6657 56.0309 33.6929 56.0931C33.7124 56.1353 33.759 56.2233 33.9184 56.367L34.1245 56.5554C34.2878 56.7064 34.4588 56.8721 34.5949 57.1453C34.7271 57.4057 34.7621 57.6236 34.7621 57.873C34.7621 58.2038 34.7038 58.495 34.5172 58.6632C34.2955 58.863 34.0273 58.7904 33.7512 58.6543C33.588 58.5738 33.4324 58.4754 33.2419 58.2838Z" fill="black"/>
<path fill-rule="evenodd" clip-rule="evenodd" d="M36.9288 58.627C36.7266 58.8039 36.4855 58.7229 36.2834 58.6232L35.8596 58.4143V59.6127L35.187 59.281V55.6641L36.2601 56.1932C36.4855 56.3044 36.7188 56.4791 36.9171 56.8426C37.1193 57.2134 37.1582 57.5363 37.1582 57.84C37.1582 58.1274 37.1309 58.4501 36.9288 58.627ZM36.089 56.868L35.8596 56.7549V57.6551L36.0851 57.7663C36.1551 57.8008 36.2873 57.8551 36.3689 57.7924C36.4506 57.735 36.4544 57.5905 36.4544 57.5038C36.4544 57.4062 36.4467 57.2722 36.3767 57.1401C36.2989 56.9878 36.1745 56.9102 36.089 56.868Z" fill="black"/>
<path fill-rule="evenodd" clip-rule="evenodd" d="M39.6831 61.4982L38.9638 61.1435L38.8044 60.4576L37.8636 59.9936L37.6886 60.5146L36.9771 60.1638L37.9724 57.0377L38.7072 57.4L39.6831 61.4982ZM38.334 58.3385L38.0502 59.3698L38.6256 59.6536L38.334 58.3385Z" fill="black"/>
<path d="M41.1588 61.3963C41.2599 61.4461 41.5087 61.5526 41.7459 61.3062V62.4179C41.4776 62.4211 41.3299 62.3916 41.1627 62.3092C40.7117 62.0868 40.3735 61.6706 40.1596 61.2723C39.9069 60.7952 39.767 60.2327 39.767 59.7609C39.767 59.2458 39.9264 58.8363 40.1596 58.6206C40.389 58.4084 40.735 58.3404 41.1394 58.5398C41.2638 58.6011 41.466 58.728 41.7459 59.0233V60.1458C41.5282 59.6642 41.2716 59.516 41.1588 59.4604C40.9644 59.3645 40.8167 59.373 40.6923 59.4689C40.5329 59.5964 40.4668 59.8457 40.4668 60.1006C40.4668 60.3501 40.5406 60.663 40.6767 60.9091C40.7895 61.1111 40.9683 61.3023 41.1588 61.3963Z" fill="black"/>
<path d="M42.173 59.1092L43.6465 59.8358V60.633L42.8456 60.238V60.8399L43.6038 61.2138V62.0109L42.8456 61.6371V62.2607L43.6465 62.6556V63.4528L42.173 62.7261V59.1092Z" fill="black"/>
</g>
<path d="M32.9363 49.8625L50.0942 44.5377V44.1495L0.395508 33.1774V33.5499L32.9363 49.8625Z" fill="#B8946A"/>
<path d="M32.9363 49.4779L50.0942 44.1531L17.5534 27.8405L0.395508 33.1653L32.9363 49.4779Z" fill="#E9BB86"/>
</svg>
